<svg width="50" height="100" viewBox="0 0 50 100" fill="none" xmlns="http://www.w3.org/2000/svg">
<g clip-path="url(#clip0_21_10)">
<path d="M25 50C11.2284 50 0 38.7931 0 25C0 11.2069 11.2284 0 25 0C38.7716 0 50 11.2284 50 25C50 38.7716 38.7931 50 25 50ZM25 2.78017C12.7586 2.78017 2.80172 12.7371 2.80172 24.9784C2.80172 37.2198 12.7586 47.1767 25 47.1767C37.2414 47.1767 47.1983 37.2198 47.1983 24.9784C47.1983 12.7586 37.2414 2.78017 25 2.78017Z" fill="#D0021B"/>
<path d="M20.1724 14.3535C19.1595 12.6941 17.2414 11.7673 14.8276 11.7673C12.6509 11.7673 10.7759 12.5001 9.4181 13.8794L9.13793 14.1596L10.819 16.3363L11.1853 15.9484C12.3707 14.6984 14.0302 14.526 14.9138 14.526C16.0991 14.526 16.875 14.9139 17.3276 15.6682C17.7155 16.3147 17.6078 17.1122 17.6078 17.8234V17.9311H17.4353C15.625 17.9311 13.3836 17.9311 11.5302 18.5777C8.90086 19.526 7.97414 21.5087 7.97414 23.0389C7.97414 25.2156 9.69827 27.5216 13.1034 27.5216C14.6983 27.5216 16.056 27.0044 17.6078 26.0777V27.2199H20.9698V17.9527C20.9698 16.6811 20.8621 15.5173 20.1724 14.3535ZM13.5776 24.8708C11.9181 24.8708 11.1207 23.8578 11.1207 22.888C11.1207 22.4785 11.2716 22.026 11.6379 21.638C11.9828 21.2501 12.5216 20.8837 13.319 20.7113C14.1164 20.5389 15.2802 20.4742 16.1422 20.4742C16.444 20.4742 17.6509 20.4958 17.6509 20.4958V21.2716C17.6078 23.7285 15.2586 24.8708 13.5776 24.8708Z" fill="#D0021B"/>
<path d="M17.824 41.0882L20.4655 42.022L32.1813 8.88173L29.5398 7.94792L17.824 41.0882Z" fill="#D0021B"/>
<path d="M34.1595 17.9094H33.2759L26.6595 36.7887H29.6336L31.3578 31.3577H36.3578L38.319 36.7887H41.4009L34.1595 17.9094ZM32.069 29.0301L33.7284 24.0948L35.5603 29.0301H32.069Z" fill="#D0021B"/>
</g>
<g clip-path="url(#clip1_21_10)">
<path d="M25 100C11.2284 100 0 88.7931 0 75C0 61.2069 11.2284 50 25 50C38.7716 50 50 61.2284 50 75C50 88.7716 38.7931 100 25 100Z" fill="#D0021B"/>
<path d="M20.1724 64.3535C19.1595 62.6941 17.2414 61.7673 14.8276 61.7673C12.6509 61.7673 10.7759 62.5001 9.4181 63.8794L9.13793 64.1596L10.819 66.3363L11.1853 65.9484C12.3707 64.6984 14.0302 64.526 14.9138 64.526C16.0991 64.526 16.875 64.9139 17.3276 65.6682C17.7155 66.3147 17.6078 67.1122 17.6078 67.8234V67.9311H17.4353C15.625 67.9311 13.3836 67.9311 11.5302 68.5777C8.90086 69.526 7.97414 71.5087 7.97414 73.0389C7.97414 75.2156 9.69827 77.5216 13.1034 77.5216C14.6983 77.5216 16.056 77.0044 17.6078 76.0777V77.2199H20.9698V67.9527C20.9698 66.6811 20.8621 65.5173 20.1724 64.3535ZM13.5776 74.8708C11.9181 74.8708 11.1207 73.8578 11.1207 72.888C11.1207 72.4785 11.2716 72.026 11.6379 71.638C11.9828 71.2501 12.5216 70.8837 13.319 70.7113C14.1164 70.5389 15.2802 70.4742 16.1422 70.4742C16.444 70.4742 17.6509 70.4958 17.6509 70.4958V71.2716C17.6078 73.7285 15.2586 74.8708 13.5776 74.8708Z" fill="white"/>
<path d="M17.824 91.0882L20.4655 92.022L32.1813 58.8817L29.5398 57.9479L17.824 91.0882Z" fill="white"/>
<path d="M34.1595 67.9094H33.2759L26.6595 86.7887H29.6336L31.3578 81.3577H36.3578L38.319 86.7887H41.4009L34.1595 67.9094ZM32.069 79.0301L33.7284 74.0948L35.5603 79.0301H32.069Z" fill="white"/>
</g>
<defs>
<clipPath id="clip0_21_10">
<rect width="50" height="50" fill="white"/>
</clipPath>
<clipPath id="clip1_21_10">
<rect width="50" height="50" fill="white" transform="translate(0 50)"/>
</clipPath>
</defs>
</svg>
