<svg width="50" height="100" viewBox="0 0 50 100" fill="none" xmlns="http://www.w3.org/2000/svg">
<circle cx="25" cy="25" r="23.5" stroke="#EB0A1E" stroke-width="3"/>
<circle cx="25" cy="75" r="25" fill="#EB0A1E"/>
<g clip-path="url(#clip0_102_24)">
<mask id="mask0_102_24" style="mask-type:luminance" maskUnits="userSpaceOnUse" x="8" y="11" width="34" height="28">
<path d="M42 11H8V39H42V11Z" fill="white"/>
</mask>
<g mask="url(#mask0_102_24)">
<path d="M28.3998 12.75H35.1998C36.1401 12.75 36.8998 13.532 36.8998 14.5C36.8998 15.468 36.1401 16.25 35.1998 16.25H29.1648C28.8885 17.6609 27.9482 18.8258 26.6998 19.3836V35.5H35.1998C36.1401 35.5 36.8998 36.282 36.8998 37.25C36.8998 38.218 36.1401 39 35.1998 39H24.9998H14.7998C13.8595 39 13.0998 38.218 13.0998 37.25C13.0998 36.282 13.8595 35.5 14.7998 35.5H23.2998V19.3836C22.0513 18.8203 21.111 17.6555 20.8348 16.25H14.7998C13.8595 16.25 13.0998 15.468 13.0998 14.5C13.0998 13.532 13.8595 12.75 14.7998 12.75H21.5998C22.3754 11.6891 23.6079 11 24.9998 11C26.3916 11 27.6241 11.6891 28.3998 12.75ZM14.6829 20.6961L10.7144 28.5H18.8851L14.9166 20.6961C14.8954 20.6523 14.8476 20.625 14.7998 20.625C14.752 20.625 14.7095 20.6523 14.6829 20.6961ZM14.7998 18C15.7985 18 16.7123 18.5687 17.1745 19.4766L21.3076 27.5977C21.4723 27.9148 21.6316 28.3633 21.5998 28.8992C21.5626 29.5609 21.3448 30.8242 20.2823 31.9125C19.2038 33.0172 17.4666 33.75 14.7998 33.75C12.1329 33.75 10.3957 33.0172 9.31726 31.918C8.25476 30.8242 8.03164 29.5664 7.99976 28.9047C7.96789 28.3687 8.13257 27.9203 8.29195 27.6031L12.4251 19.4766C12.8873 18.5687 13.801 18 14.7998 18ZM35.1998 20.625C35.152 20.625 35.1095 20.6523 35.0829 20.6961L31.1145 28.5H39.2851L35.3166 20.6961C35.2954 20.6523 35.2476 20.625 35.1998 20.625ZM32.8251 19.4766C33.2873 18.5687 34.201 18 35.1998 18C36.1985 18 37.1123 18.5687 37.5745 19.4766L41.7076 27.5977C41.8723 27.9148 42.0316 28.3633 41.9998 28.8992C41.9626 29.5609 41.7448 30.8242 40.6823 31.9125C39.6038 33.0172 37.8666 33.75 35.1998 33.75C32.5329 33.75 30.7957 33.0172 29.7173 31.918C28.6548 30.8242 28.4316 29.5664 28.3998 28.9047C28.3679 28.3687 28.5326 27.9203 28.692 27.6031L32.8251 19.4766Z" fill="#EB0A1E"/>
</g>
</g>
<g clip-path="url(#clip1_102_24)">
<mask id="mask1_102_24" style="mask-type:luminance" maskUnits="userSpaceOnUse" x="8" y="61" width="34" height="28">
<path d="M42 61H8V89H42V61Z" fill="white"/>
</mask>
<g mask="url(#mask1_102_24)">
<path d="M28.3998 62.75H35.1998C36.1401 62.75 36.8998 63.532 36.8998 64.5C36.8998 65.468 36.1401 66.25 35.1998 66.25H29.1648C28.8885 67.6609 27.9482 68.8258 26.6998 69.3836V85.5H35.1998C36.1401 85.5 36.8998 86.282 36.8998 87.25C36.8998 88.218 36.1401 89 35.1998 89H24.9998H14.7998C13.8595 89 13.0998 88.218 13.0998 87.25C13.0998 86.282 13.8595 85.5 14.7998 85.5H23.2998V69.3836C22.0513 68.8203 21.111 67.6555 20.8348 66.25H14.7998C13.8595 66.25 13.0998 65.468 13.0998 64.5C13.0998 63.532 13.8595 62.75 14.7998 62.75H21.5998C22.3754 61.6891 23.6079 61 24.9998 61C26.3916 61 27.6241 61.6891 28.3998 62.75ZM14.6829 70.6961L10.7144 78.5H18.8851L14.9166 70.6961C14.8954 70.6523 14.8476 70.625 14.7998 70.625C14.752 70.625 14.7095 70.6523 14.6829 70.6961ZM14.7998 68C15.7985 68 16.7123 68.5687 17.1745 69.4766L21.3076 77.5977C21.4723 77.9148 21.6316 78.3633 21.5998 78.8992C21.5626 79.5609 21.3448 80.8242 20.2823 81.9125C19.2038 83.0172 17.4666 83.75 14.7998 83.75C12.1329 83.75 10.3957 83.0172 9.31726 81.918C8.25476 80.8242 8.03164 79.5664 7.99976 78.9047C7.96789 78.3687 8.13257 77.9203 8.29195 77.6031L12.4251 69.4766C12.8873 68.5687 13.801 68 14.7998 68ZM35.1998 70.625C35.152 70.625 35.1095 70.6523 35.0829 70.6961L31.1145 78.5H39.2851L35.3166 70.6961C35.2954 70.6523 35.2476 70.625 35.1998 70.625ZM32.8251 69.4766C33.2873 68.5687 34.201 68 35.1998 68C36.1985 68 37.1123 68.5687 37.5745 69.4766L41.7076 77.5977C41.8723 77.9148 42.0316 78.3633 41.9998 78.8992C41.9626 79.5609 41.7448 80.8242 40.6823 81.9125C39.6038 83.0172 37.8666 83.75 35.1998 83.75C32.5329 83.75 30.7957 83.0172 29.7173 81.918C28.6548 80.8242 28.4316 79.5664 28.3998 78.9047C28.3679 78.3687 28.5326 77.9203 28.692 77.6031L32.8251 69.4766Z" fill="white"/>
</g>
</g>
<defs>
<clipPath id="clip0_102_24">
<rect width="34" height="28" fill="white" transform="translate(8 11)"/>
</clipPath>
<clipPath id="clip1_102_24">
<rect width="34" height="28" fill="white" transform="translate(8 61)"/>
</clipPath>
</defs>
</svg>
