<svg width="640" height="512" viewBox="0 0 640 512" fill="none" xmlns="http://www.w3.org/2000/svg">
<g clip-path="url(#clip0_39_2)">
<path d="M384 32H512C529.7 32 544 46.3 544 64C544 81.7 529.7 96 512 96H398.4C393.2 121.8 375.5 143.1 352 153.3V448H512C529.7 448 544 462.3 544 480C544 497.7 529.7 512 512 512H320H128C110.3 512 95.9999 497.7 95.9999 480C95.9999 462.3 110.3 448 128 448H288V153.3C264.5 143 246.8 121.7 241.6 96H128C110.3 96 95.9999 81.7 95.9999 64C95.9999 46.3 110.3 32 128 32H256C270.6 12.6 293.8 0 320 0C346.2 0 369.4 12.6 384 32V32ZM125.8 177.3L51.0999 320H204.9L130.2 177.3C129.8 176.5 128.9 176 128 176C127.1 176 126.3 176.5 125.8 177.3V177.3ZM128 128C146.8 128 164 138.4 172.7 155L250.5 303.5C253.6 309.3 256.6 317.5 256 327.3C255.3 339.4 251.2 362.5 231.2 382.4C210.9 402.6 178.2 416 128 416C77.7999 416 45.0999 402.6 24.7999 382.5C4.79994 362.5 0.599941 339.5 -5.85988e-05 327.4C-0.600059 317.6 2.49994 309.4 5.49994 303.6L83.2999 155C91.9999 138.4 109.2 128 128 128ZM512 176C511.1 176 510.3 176.5 509.8 177.3L435.1 320H588.9L514.2 177.3C513.8 176.5 512.9 176 512 176ZM467.3 155C476 138.4 493.2 128 512 128C530.8 128 548 138.4 556.7 155L634.5 303.5C637.6 309.3 640.6 317.5 640 327.3C639.3 339.4 635.2 362.5 615.2 382.4C594.9 402.6 562.2 416 512 416C461.8 416 429.1 402.6 408.8 382.5C388.8 362.5 384.6 339.5 384 327.4C383.4 317.6 386.5 309.4 389.5 303.6L467.3 155Z" fill="#D0021B"/>
</g>
<defs>
<clipPath id="clip0_39_2">
<rect width="640" height="512" fill="white"/>
</clipPath>
</defs>
</svg>
